<?xml version="1.0" encoding="UTF-8"?><svg id="a" xmlns="http://www.w3.org/2000/svg" viewBox="0 0 800 157.8"><polyline id="b" points="294.24 67.01 301.03 46.86 342.4 46.86 348.66 28.44 285.93 28.44 251.73 130.48 273.02 130.48 288.19 85.42 330.9 85.42 336.79 67.01 294.24 67.01" style="fill:#fff; fill-rule:evenodd;"/><path id="c" d="M499.4,27.2c-30.88,0-46.06,31.78-52.35,50.72-6.85,20.46-7.01,35.44-.49,44.53,4.41,6.16,11.53,9.28,21.17,9.28,12.17,0,22.88-5.71,30.54-14.56,7.3-8.42,8.55-11.98,8.66-12.32h-23.1c-2.64,4.15-7.76,8.05-13.24,8.05-4.18,0-5.32-1.56-5.82-2.23-2.11-2.93-3.31-10.43,2.98-29.51,7.89-23.31,17.54-35.14,28.65-35.14,4.49,0,5.74,2.38,5.93,4.35,.15,1.74,.09,3.11,.07,3.41h20.58c.03-.25,.27-3.14-.5-8.59-1.38-9.83-9.95-18-23.08-18" style="fill:#fff; fill-rule:evenodd;"/><path id="d" d="M672.39,76.81l-.51,1.54c-4.94,14.58-11.69,34.54-26.26,34.54-2.64,0-4.45-.57-5.23-1.64-3.61-5.03,2.71-24.01,4.79-30.23l.42-1.26c4.24-12.62,11.33-33.75,25.86-33.75,2.98,0,4.86,.62,5.77,1.89,3.33,4.66-1.39,18.67-4.84,28.9Zm2.07-49.62c-33.21,0-45.81,38.06-49.97,50.56l-.41,1.2c-3.39,10.23-10.46,31.53-1.51,44.01,4.18,5.81,10.98,8.76,20.21,8.76,32.96,0,45.6-37.69,49.76-50.07l.36-1.06c3.23-9.54,10.81-31.88,1.73-44.6-4.17-5.83-10.96-8.79-20.18-8.79h0Z" style="fill:#fff; fill-rule:evenodd;"/><path id="e" d="M796.3,37.19c-3.92-5.48-10.77-8.76-18.33-8.76h-39.88l-34.2,102.05h21.28l28.01-83.63h18.47c5.86,0,6.03,1.35,6.44,1.92,.82,1.15,.58,3.96-.63,7.52-3.29,9.86-8.73,14.85-16.2,14.85h-13.65l13.21,59.3,21.25,.03-9.69-43.29c12.16-4.78,21.57-14.85,25.78-27.64,3.76-11.08,1.06-18.27-1.86-22.35" style="fill:#fff; fill-rule:evenodd;"/><path id="f" d="M544.44,46.86h23.42l-23.29,70.58,.29,.46c4.28,6.65,8.4,13.63,12.2,20.75l1.23,2.33,30.87-94.12h21.79l6.25-18.42h-66.52l-6.25,18.42" style="fill:#fff; fill-rule:evenodd;"/><polyline id="g" points="359.34 130.38 393.19 79.16 390.93 130.38 412.03 130.38 412.69 16.83 336.02 130.38 359.34 130.38" style="fill:#fff; fill-rule:evenodd;"/><path id="h" d="M45.49,61.43C25.62,89.29,10.32,121.7,0,157.8c52.08-2.44,91.3-8.87,116.59-19.13,20.81-8.44,31.66-19.42,31.37-31.77-.61-26.72-40.81-44.55-102.47-45.47" style="fill:#e2231a; fill-rule:evenodd;"/><path id="i" d="M109.3,.52c-.34-.22-.6-.39-.81-.52-.21,.14-.49,.31-.84,.54-26.28,16.84-46.11,39.31-58.47,55.81,.82,0,1.66,0,2.53,0,6.93,0,15.15,.17,24.5,.52l1.02,.04c49.83,1.69,94.85,19.56,119.32,47.02C167.73,44.22,129.74,13.61,109.3,.52" style="fill:#e2231a; fill-rule:evenodd;"/></svg>